<svg xmlns="http://www.w3.org/2000/svg" viewBox="-55 0 202 77">
    <path d="M194.419,219.984h.421q6.408,0,12.817,0a3.045,3.045,0,0,1,2.982,1.8,3.088,3.088,0,0,1-2.7,4.383H207.9q-16.832,0-33.665,0A3.085,3.085,0,0,1,174.13,220c.763-.034,1.529-.015,2.294-.015h11.219V205.309H184.38V217.3h-6.6v-.347q0-14.751,0-29.5a3.3,3.3,0,1,1,6.586-.22c.021,1.278,0,2.557,0,3.835q0,3.72,0,7.441v.4h3.289v-.414q0-11.866,0-23.733a3.361,3.361,0,0,1,6.693-.577,6.183,6.183,0,0,1,.038.719q0,11.784,0,23.569v.435H197.3v-.4q0-5.573,0-11.145a3.3,3.3,0,1,1,6.59-.138c0,.109,0,.218,0,.328V217.3h-6.578V205.3h-2.9Z" transform="translate(-171.2 -171.232)" fill="#ff8615" />
    <path xmlns="http://www.w3.org/2000/svg" class="st13" d="M92.5,61.9c0,4.5-3.9,8.2-8.6,8.2H62.9c0.5-1.4,0.9-2.9,0.9-4.5c0-5.1-3.1-9.6-7.7-11.4 c0.1-0.8,0.2-1.7,0.2-2.5c0-1.9-0.3-3.8-1-5.5c1.4-1.1,3.2-1.8,5.2-1.8c0.9,0,1.7,0.1,2.4,0.4c2.1-3.7,6.1-6.2,10.8-6.2 c6.7,0,12.2,5.2,12.2,11.6c0,1.2-0.2,2.4-0.6,3.5C89.4,54.5,92.5,57.9,92.5,61.9z M53.2,56c0.4-1.3,0.6-2.7,0.6-4.2 c0-1.2-0.1-2.3-0.4-3.4c-1.5-6-7-10.5-13.5-10.5c-5.3,0-9.9,3-12.3,7.4c-0.9-0.3-1.8-0.4-2.8-0.4c-5.1,0-9.3,4.1-9.3,9.3 c0,0.6,0.1,1.3,0.2,1.9c-4.7,0.7-8.3,4.8-8.3,9.7c0,5.4,4.4,9.8,9.8,9.8h34.2c3.8,0,7.1-2.2,8.8-5.4c0.7-1.3,1.1-2.9,1.1-4.5 C61.4,60.8,57.8,56.8,53.2,56z" fill="#ffffff" style="fill: rgb(255, 255, 255);"/>
</svg>